<?xml version="1.0" encoding="UTF-8" standalone="no"?>
<!-- Created with Inkscape (http://www.inkscape.org/) -->

<svg
   xmlns:dc="http://purl.org/dc/elements/1.1/"
   xmlns:cc="http://creativecommons.org/ns#"
   xmlns:rdf="http://www.w3.org/1999/02/22-rdf-syntax-ns#"
   xmlns:svg="http://www.w3.org/2000/svg"
   xmlns="http://www.w3.org/2000/svg"
   xmlns:sodipodi="http://sodipodi.sourceforge.net/DTD/sodipodi-0.dtd"
   xmlns:inkscape="http://www.inkscape.org/namespaces/inkscape"
   width="35.505417mm"
   height="22.288498mm"
   viewBox="0 0 35.505417 22.288498"
   version="1.1"
   id="svg8"
   inkscape:version="0.92.4 (5da689c313, 2019-01-14)"
   sodipodi:docname="header.svg">
  <defs
     id="defs2" />
  <sodipodi:namedview
     id="base"
     pagecolor="#ffffff"
     bordercolor="#666666"
     borderopacity="1.0"
     inkscape:pageopacity="0.0"
     inkscape:pageshadow="2"
     inkscape:zoom="0.98994949"
     inkscape:cx="142.26659"
     inkscape:cy="14.918378"
     inkscape:document-units="mm"
     inkscape:current-layer="layer1"
     showgrid="false"
     fit-margin-top="0"
     fit-margin-left="0"
     fit-margin-right="0"
     fit-margin-bottom="0"
     inkscape:window-width="1920"
     inkscape:window-height="1016"
     inkscape:window-x="0"
     inkscape:window-y="27"
     inkscape:window-maximized="1" />
  <metadata
     id="metadata5">
    <rdf:RDF>
      <cc:Work
         rdf:about="">
        <dc:format>image/svg+xml</dc:format>
        <dc:type
           rdf:resource="http://purl.org/dc/dcmitype/StillImage" />
        <dc:title></dc:title>
      </cc:Work>
    </rdf:RDF>
  </metadata>
  <g
     inkscape:label="Layer 1"
     inkscape:groupmode="layer"
     id="layer1"
     transform="translate(-22.666133,-81.699822)">
    <path
       inkscape:connector-curvature="0"
       id="path28"
       style="font-style:normal;font-variant:normal;font-weight:normal;font-stretch:normal;font-size:16.53645897px;line-height:5.29166651px;font-family:Cabin;-inkscape-font-specification:'Cabin Bold';text-align:center;letter-spacing:0px;word-spacing:0px;text-anchor:middle;fill:#000000;fill-opacity:1;stroke:none;stroke-width:0.26458332px;stroke-linecap:butt;stroke-linejoin:miter;stroke-opacity:1"
       d="m 30.775562,99.160222 -0.143757,0.03852 C 29.80121,99.421299 29.59608,98.91131 29.296484,97.7932 l -0.427995,-1.597299 c -0.757552,-2.827221 -1.788466,-3.543936 -3.769117,-3.013222 -1.038245,0.278197 -1.938691,0.878986 -2.433239,1.525094 l 0.520085,1.11039 c 0.676517,-0.797586 1.281197,-1.096567 1.872198,-1.254926 1.102137,-0.295316 1.794709,-0.138494 2.192744,1.346993 -1.988064,0.566937 -4.521728,1.845026 -3.931094,4.0493 0.350955,1.30978 1.566131,2.01137 3.019674,1.62189 1.006299,-0.26963 1.68083,-0.94685 2.087793,-1.792046 0.516337,0.649156 0.931103,0.983136 2.320753,0.610786 l 0.111811,-0.03 z m -2.75829,-0.390825 c -0.292019,0.763038 -0.947444,1.383773 -1.714147,1.589213 -0.718785,0.1926 -1.308107,-0.0261 -1.534944,-0.872701 -0.312437,-1.166028 0.485599,-1.893455 2.748336,-2.585353 z"
       inkscape:export-xdpi="180"
       inkscape:export-ydpi="180" />
    <path
       style="font-style:normal;font-variant:normal;font-weight:normal;font-stretch:normal;font-size:16.53645897px;line-height:5.29166651px;font-family:Cabin;-inkscape-font-specification:'Cabin Bold';text-align:center;letter-spacing:0px;word-spacing:0px;text-anchor:middle;fill:#000000;fill-opacity:1;stroke:none;stroke-width:0.26458332px;stroke-linecap:butt;stroke-linejoin:miter;stroke-opacity:1"
       d="m 32.637783,103.78006 c 0.780383,-0.34606 1.8106,-1.10146 1.408284,-2.60292 l -2.55513,-9.535878 -1.437569,0.385195 2.409612,8.992793 c 0.338115,1.26187 0.178693,1.56138 -0.738033,1.90974 l 0.455045,1.05933 z"
       id="path52"
       inkscape:connector-curvature="0"
       inkscape:export-xdpi="180"
       inkscape:export-ydpi="180" />
    <path
       style="font-style:normal;font-variant:normal;font-weight:normal;font-stretch:normal;font-size:16.53645897px;line-height:5.29166651px;font-family:Cabin;-inkscape-font-specification:'Cabin Bold';text-align:center;letter-spacing:0px;word-spacing:0px;text-anchor:middle;fill:#ff0000;fill-opacity:1;stroke:none;stroke-width:0.26458332px;stroke-linecap:butt;stroke-linejoin:miter;stroke-opacity:1"
       d="m 31.020143,89.884233 -0.427996,-1.597299 -1.437569,0.385195 0.427995,1.597299 z"
       id="path30"
       inkscape:connector-curvature="0"
       inkscape:export-xdpi="180"
       inkscape:export-ydpi="180" />
    <path
       inkscape:connector-curvature="0"
       id="path32"
       style="font-style:normal;font-variant:normal;font-weight:normal;font-stretch:normal;font-size:16.53645897px;line-height:5.29166651px;font-family:Cabin;-inkscape-font-specification:'Cabin Bold';text-align:center;letter-spacing:0px;word-spacing:0px;text-anchor:middle;fill:#000000;fill-opacity:1;stroke:none;stroke-width:0.26458332px;stroke-linecap:butt;stroke-linejoin:miter;stroke-opacity:1"
       d="m 37.842551,91.137739 -0.299597,-1.11811 -2.108436,0.564953 -0.256796,-0.958379 c -0.427996,-1.597299 -0.433732,-1.938158 0.317001,-2.139316 0.303487,-0.08132 0.615534,-0.130695 0.9969,-0.113041 L 36.389968,86.09998 c -0.417591,-0.02507 -0.774423,-0.01505 -1.684885,0.228906 -1.197974,0.320996 -1.576964,1.398374 -1.238847,2.660241 l 0.530713,1.980651 -1.166028,0.312436 0.107921,1.16947 1.357704,-0.363796 1.797579,6.708656 1.437569,-0.385195 -1.797579,-6.708656 z"
       inkscape:export-xdpi="180"
       inkscape:export-ydpi="180" />
    <path
       inkscape:connector-curvature="0"
       id="path34"
       style="font-style:normal;font-variant:normal;font-weight:normal;font-stretch:normal;font-size:16.53645897px;line-height:5.29166651px;font-family:Cabin;-inkscape-font-specification:'Cabin Bold';text-align:center;letter-spacing:0px;word-spacing:0px;text-anchor:middle;fill:#ff0000;fill-opacity:1;stroke:none;stroke-width:0.26458332px;stroke-linecap:butt;stroke-linejoin:miter;stroke-opacity:1"
       d="m 41.760294,97.278299 -0.368075,-1.373677 -1.437569,0.385195 0.368075,1.373677 z"
       inkscape:export-xdpi="180"
       inkscape:export-ydpi="180" />
    <path
       inkscape:connector-curvature="0"
       id="path36"
       style="font-style:normal;font-variant:normal;font-weight:normal;font-stretch:normal;font-size:16.53645897px;line-height:5.29166651px;font-family:Cabin;-inkscape-font-specification:'Cabin Bold';text-align:center;letter-spacing:0px;word-spacing:0px;text-anchor:middle;fill:#000000;fill-opacity:1;stroke:none;stroke-width:0.26458332px;stroke-linecap:butt;stroke-linejoin:miter;stroke-opacity:1"
       d="m 45.67306,89.03956 -0.299597,-1.11811 -2.108435,0.564953 -0.256797,-0.958379 c -0.427995,-1.597299 -0.433731,-1.938158 0.317002,-2.139316 0.303487,-0.08132 0.615533,-0.130695 0.996899,-0.11304 l -0.101654,-1.273867 c -0.417592,-0.02507 -0.774424,-0.01505 -1.684885,0.228906 -1.197974,0.320996 -1.576964,1.398375 -1.238848,2.660242 l 0.530714,1.98065 -1.166028,0.312436 0.10792,1.16947 1.357705,-0.363796 1.797579,6.708657 1.437569,-0.385196 -1.797579,-6.708656 z"
       inkscape:export-xdpi="180"
       inkscape:export-ydpi="180" />
    <path
       inkscape:connector-curvature="0"
       id="path38"
       style="font-style:normal;font-variant:normal;font-weight:normal;font-stretch:normal;font-size:16.53645897px;line-height:5.29166651px;font-family:Cabin;-inkscape-font-specification:'Cabin Bold';text-align:center;letter-spacing:0px;word-spacing:0px;text-anchor:middle;fill:#000000;fill-opacity:1;stroke:none;stroke-width:0.26458332px;stroke-linecap:butt;stroke-linejoin:miter;stroke-opacity:1"
       d="m 53.536912,85.73406 -1.597299,0.427996 -0.646372,6.404803 -4.00177,-5.159338 -1.597299,0.427995 5.261508,6.602251 -0.675043,4.700501 1.5973,-0.427995 z"
       inkscape:export-xdpi="180"
       inkscape:export-ydpi="180" />
    <path
       style="font-style:normal;font-variant:normal;font-weight:normal;font-stretch:normal;font-size:16.53645897px;line-height:5.29166651px;font-family:Cabin;-inkscape-font-specification:'Cabin Bold';text-align:center;letter-spacing:0px;word-spacing:0px;text-anchor:middle;fill:#ff0000;fill-opacity:1;stroke:none;stroke-width:0.26458332px;stroke-linecap:butt;stroke-linejoin:miter;stroke-opacity:1"
       d="m 55.603578,83.297121 -0.427995,-1.597299 -1.437569,0.385195 0.427995,1.5973 z"
       id="path56"
       inkscape:connector-curvature="0"
       inkscape:export-xdpi="180"
       inkscape:export-ydpi="180" />
    <path
       style="font-style:normal;font-variant:normal;font-weight:normal;font-stretch:normal;font-size:16.53645897px;line-height:5.29166651px;font-family:Cabin;-inkscape-font-specification:'Cabin Bold';text-align:center;letter-spacing:0px;word-spacing:0px;text-anchor:middle;fill:#000000;fill-opacity:1;stroke:none;stroke-width:0.26458332px;stroke-linecap:butt;stroke-linejoin:miter;stroke-opacity:1"
       d="m 58.171548,92.880917 -2.097176,-7.826767 -1.437569,0.385196 2.097176,7.826766 z"
       id="path40"
       inkscape:connector-curvature="0"
       inkscape:export-xdpi="180"
       inkscape:export-ydpi="180" />
    <text
       xml:space="preserve"
       style="font-style:normal;font-variant:normal;font-weight:normal;font-stretch:normal;font-size:16.53645897px;line-height:5.29166651px;font-family:Cabin;-inkscape-font-specification:Cabin;text-align:center;letter-spacing:0px;word-spacing:0px;text-anchor:middle;fill:#000000;fill-opacity:1;stroke:none;stroke-width:0.26458332px;stroke-linecap:butt;stroke-linejoin:miter;stroke-opacity:1"
       x="41.421017"
       y="118.07755"
       id="text60"><tspan
         sodipodi:role="line"
         id="tspan58"
         x="41.421017"
         y="118.07755"
         style="stroke-width:0.26458332px">ajf.fyi</tspan></text>
  </g>
</svg>
